<mxfile host="Electron" modified="2023-07-30T21:45:34.463Z" agent="Mozilla/5.0 (Macintosh; Intel Mac OS X 10_15_7) AppleWebKit/537.36 (KHTML, like Gecko) draw.io/21.6.1 Chrome/112.0.5615.204 Electron/24.6.1 Safari/537.36" etag="4vGFGWrS7HXz12mkIWvV" version="21.6.1" type="device">
  <diagram name="Page-1" id="PMwTSz56OeZK1hlhQZGQ">
    <mxGraphModel dx="1818" dy="1095" grid="0" gridSize="10" guides="1" tooltips="1" connect="1" arrows="1" fold="1" page="1" pageScale="1" pageWidth="4681" pageHeight="3300" background="#000912" math="0" shadow="0">
      <root>
        <mxCell id="0" />
        <mxCell id="1" parent="0" />
        <mxCell id="_ptRxj00zK-4uufMq2v0-26" value="&lt;h1 style=&quot;box-sizing: inherit; outline-color: inherit; margin: 0px 0px 1.5rem; padding: 0px; word-break: break-word; line-height: 1.125; text-align: start; font-size: 40px;&quot; class=&quot;title is-1&quot;&gt;&lt;font style=&quot;font-size: 40px;&quot; color=&quot;#e6e6e6&quot;&gt;Anti-Corruption Layer Pattern&lt;/font&gt;&lt;br style=&quot;font-size: 40px;&quot;&gt;&lt;/h1&gt;&lt;div style=&quot;box-sizing: inherit; outline-color: inherit; flex-wrap: wrap; justify-content: flex-start; align-items: center; display: flex; margin-bottom: -0.25rem; color: rgb(230, 230, 230); font-weight: 400; text-align: start; background-color: rgb(23, 23, 23); font-size: 40px; margin-block: 0.5rem !important;&quot; class=&quot;font-size-sm tags margin-block-xxs is-hidden-portrait&quot;&gt;&lt;/div&gt;" style="rounded=0;whiteSpace=wrap;html=1;sketch=1;fontFamily=Comic Sans MS;strokeWidth=1;fillStyle=cross-hatch;glass=0;fillColor=#525252;strokeColor=#FFFFFF;fontColor=#FFFFFF;verticalAlign=top;align=center;fontSize=40;fontStyle=1;spacingTop=23;shadow=0;labelBackgroundColor=none;" vertex="1" parent="1">
          <mxGeometry x="409" y="639" width="1382" height="745" as="geometry" />
        </mxCell>
        <mxCell id="_ptRxj00zK-4uufMq2v0-28" value="" style="rounded=0;whiteSpace=wrap;html=1;sketch=1;fontFamily=Comic Sans MS;strokeWidth=0;fillStyle=cross-hatch;glass=0;fillColor=#262626;strokeColor=#FFFFFF;fontColor=#FFFFFF;verticalAlign=top;align=right;fontSize=16;fontStyle=1;spacingTop=-1;shadow=0;labelBackgroundColor=none;spacingRight=6;dashed=1;dashPattern=8 8;" vertex="1" parent="1">
          <mxGeometry x="431" y="731" width="1336" height="632" as="geometry" />
        </mxCell>
        <mxCell id="_ptRxj00zK-4uufMq2v0-23" value="&lt;font style=&quot;font-size: 13px;&quot;&gt;legacy-system&lt;br style=&quot;font-size: 13px;&quot;&gt;&lt;/font&gt;" style="rounded=0;whiteSpace=wrap;html=1;fillColor=#700000;strokeColor=#990000;fontFamily=Comic Sans MS;fontColor=#FFFFFF;strokeWidth=2;fontStyle=1;fontSize=13;verticalAlign=middle;align=center;glass=0;gradientColor=#2181FF;fillStyle=cross-hatch;sketch=1;curveFitting=1;jiggle=2;" vertex="1" parent="1">
          <mxGeometry x="984" y="847" width="427" height="395" as="geometry" />
        </mxCell>
        <mxCell id="_ptRxj00zK-4uufMq2v0-29" value="" style="endArrow=open;html=1;rounded=0;fontFamily=Verdana;fontSize=12;fontColor=#330066;endFill=0;endSize=13;startSize=13;strokeWidth=1;strokeColor=#FFD966;startArrow=oval;startFill=1;sketch=1;curveFitting=1;jiggle=2;exitX=1;exitY=0.5;exitDx=0;exitDy=0;" edge="1" parent="1" source="_ptRxj00zK-4uufMq2v0-23" target="_ptRxj00zK-4uufMq2v0-30">
          <mxGeometry width="50" height="50" relative="1" as="geometry">
            <mxPoint x="1477" y="892" as="sourcePoint" />
            <mxPoint x="1635" y="892" as="targetPoint" />
            <Array as="points" />
          </mxGeometry>
        </mxCell>
        <mxCell id="_ptRxj00zK-4uufMq2v0-30" value="&lt;span style=&quot;font-size: 10px&quot;&gt;legacy-database&lt;br style=&quot;font-size: 10px&quot;&gt;&lt;/span&gt;" style="shape=cylinder3;whiteSpace=wrap;html=1;boundedLbl=1;backgroundOutline=1;size=10;fontFamily=Comic Sans MS;fontSize=13;fontColor=#FFD966;align=center;strokeColor=#FFD966;strokeWidth=2;fillColor=#1C1C1C;gradientColor=none;sketch=1;fontStyle=1;fillStyle=solid;rounded=0;glass=0;curveFitting=1;jiggle=2;" vertex="1" parent="1">
          <mxGeometry x="1496" y="958.25" width="182" height="172.5" as="geometry" />
        </mxCell>
        <mxCell id="_ptRxj00zK-4uufMq2v0-32" value="" style="endArrow=open;html=1;rounded=0;fontFamily=Verdana;fontSize=12;fontColor=#330066;endFill=0;endSize=13;startSize=13;strokeWidth=1;strokeColor=#009E4F;startArrow=open;startFill=0;sketch=1;curveFitting=1;jiggle=2;exitX=0.5;exitY=0;exitDx=0;exitDy=0;entryX=0.5;entryY=0;entryDx=0;entryDy=0;" edge="1" parent="1" source="_ptRxj00zK-4uufMq2v0-35" target="_ptRxj00zK-4uufMq2v0-36">
          <mxGeometry width="50" height="50" relative="1" as="geometry">
            <mxPoint x="1581" y="748.9999999999999" as="sourcePoint" />
            <mxPoint x="1739" y="749.4" as="targetPoint" />
            <Array as="points">
              <mxPoint x="538" y="792" />
              <mxPoint x="811" y="794" />
            </Array>
          </mxGeometry>
        </mxCell>
        <mxCell id="_ptRxj00zK-4uufMq2v0-33" value="Microservice 1&lt;span style=&quot;font-size: 10px&quot;&gt;&lt;br style=&quot;font-size: 10px&quot;&gt;&lt;/span&gt;" style="ellipse;whiteSpace=wrap;html=1;fontFamily=Comic Sans MS;fontSize=13;fontColor=#04C967;align=center;strokeColor=#009E4F;fillColor=#1C1C1C;sketch=1;gradientColor=none;strokeWidth=2;fontStyle=1;rounded=0;fillStyle=solid;glass=0;curveFitting=1;jiggle=2;" vertex="1" parent="1">
          <mxGeometry x="475" y="991.5" width="110" height="106" as="geometry" />
        </mxCell>
        <mxCell id="_ptRxj00zK-4uufMq2v0-34" value="Microservice 2&lt;span style=&quot;font-size: 10px&quot;&gt;&lt;br style=&quot;font-size: 10px&quot;&gt;&lt;/span&gt;" style="ellipse;whiteSpace=wrap;html=1;fontFamily=Comic Sans MS;fontSize=13;fontColor=#04C967;align=center;strokeColor=#009E4F;fillColor=#1C1C1C;sketch=1;gradientColor=none;strokeWidth=2;fontStyle=1;rounded=0;fillStyle=solid;glass=0;curveFitting=1;jiggle=2;" vertex="1" parent="1">
          <mxGeometry x="475" y="1141" width="110" height="106" as="geometry" />
        </mxCell>
        <mxCell id="_ptRxj00zK-4uufMq2v0-35" value="Microservice 2&lt;span style=&quot;font-size: 10px&quot;&gt;&lt;br style=&quot;font-size: 10px&quot;&gt;&lt;/span&gt;" style="ellipse;whiteSpace=wrap;html=1;fontFamily=Comic Sans MS;fontSize=13;fontColor=#04C967;align=center;strokeColor=#009E4F;fillColor=#1C1C1C;sketch=1;gradientColor=none;strokeWidth=2;fontStyle=1;rounded=0;fillStyle=solid;glass=0;curveFitting=1;jiggle=2;" vertex="1" parent="1">
          <mxGeometry x="483" y="857" width="110" height="106" as="geometry" />
        </mxCell>
        <mxCell id="_ptRxj00zK-4uufMq2v0-36" value="&lt;font style=&quot;font-size: 13px;&quot;&gt;anti-corruption&lt;br style=&quot;font-size: 13px;&quot;&gt;&lt;/font&gt;" style="rounded=0;whiteSpace=wrap;html=1;fillColor=#0E457D;strokeColor=#1878D9;fontFamily=Comic Sans MS;fontColor=#FFFFFF;strokeWidth=2;fontStyle=1;fontSize=13;verticalAlign=middle;align=center;glass=0;gradientColor=#2181FF;fillStyle=cross-hatch;sketch=1;curveFitting=1;jiggle=2;" vertex="1" parent="1">
          <mxGeometry x="731" y="847" width="160" height="395" as="geometry" />
        </mxCell>
        <mxCell id="_ptRxj00zK-4uufMq2v0-37" value="" style="endArrow=open;html=1;rounded=0;fontFamily=Verdana;fontSize=12;fontColor=#330066;endFill=0;endSize=13;startSize=13;strokeWidth=1;strokeColor=#CC0000;startArrow=open;startFill=0;sketch=1;curveFitting=1;jiggle=2;exitX=0;exitY=0.5;exitDx=0;exitDy=0;entryX=1;entryY=0.5;entryDx=0;entryDy=0;" edge="1" parent="1" source="_ptRxj00zK-4uufMq2v0-23" target="_ptRxj00zK-4uufMq2v0-36">
          <mxGeometry width="50" height="50" relative="1" as="geometry">
            <mxPoint x="901" y="956" as="sourcePoint" />
            <mxPoint x="994" y="956" as="targetPoint" />
            <Array as="points" />
          </mxGeometry>
        </mxCell>
        <mxCell id="_ptRxj00zK-4uufMq2v0-38" value="" style="endArrow=open;html=1;rounded=0;fontFamily=Verdana;fontSize=12;fontColor=#330066;endFill=0;endSize=13;startSize=13;strokeWidth=1;strokeColor=#CC0000;startArrow=open;startFill=0;sketch=1;curveFitting=1;jiggle=2;exitX=0.5;exitY=1;exitDx=0;exitDy=0;entryX=0.5;entryY=1;entryDx=0;entryDy=0;exitPerimeter=0;" edge="1" parent="1" source="_ptRxj00zK-4uufMq2v0-30" target="_ptRxj00zK-4uufMq2v0-36">
          <mxGeometry width="50" height="50" relative="1" as="geometry">
            <mxPoint x="994" y="1055" as="sourcePoint" />
            <mxPoint x="901" y="1055" as="targetPoint" />
            <Array as="points">
              <mxPoint x="1590" y="1293" />
              <mxPoint x="811" y="1299" />
            </Array>
          </mxGeometry>
        </mxCell>
        <mxCell id="_ptRxj00zK-4uufMq2v0-39" value="" style="endArrow=open;html=1;rounded=0;fontFamily=Verdana;fontSize=12;fontColor=#330066;endFill=0;endSize=13;startSize=13;strokeWidth=1;strokeColor=#009E4F;startArrow=open;startFill=0;sketch=1;curveFitting=1;jiggle=2;exitX=0.5;exitY=1;exitDx=0;exitDy=0;entryX=0.25;entryY=1;entryDx=0;entryDy=0;" edge="1" parent="1" source="_ptRxj00zK-4uufMq2v0-34" target="_ptRxj00zK-4uufMq2v0-36">
          <mxGeometry width="50" height="50" relative="1" as="geometry">
            <mxPoint x="548" y="867" as="sourcePoint" />
            <mxPoint x="821" y="857" as="targetPoint" />
            <Array as="points">
              <mxPoint x="527" y="1298" />
              <mxPoint x="773" y="1298" />
            </Array>
          </mxGeometry>
        </mxCell>
        <mxCell id="_ptRxj00zK-4uufMq2v0-40" value="" style="endArrow=open;html=1;rounded=0;fontFamily=Verdana;fontSize=12;fontColor=#330066;endFill=0;endSize=13;startSize=13;strokeWidth=1;strokeColor=#009E4F;startArrow=open;startFill=0;sketch=1;curveFitting=1;jiggle=2;exitX=1;exitY=0.5;exitDx=0;exitDy=0;entryX=0;entryY=0.5;entryDx=0;entryDy=0;" edge="1" parent="1" source="_ptRxj00zK-4uufMq2v0-33" target="_ptRxj00zK-4uufMq2v0-36">
          <mxGeometry width="50" height="50" relative="1" as="geometry">
            <mxPoint x="548" y="867" as="sourcePoint" />
            <mxPoint x="821" y="857" as="targetPoint" />
            <Array as="points" />
          </mxGeometry>
        </mxCell>
      </root>
    </mxGraphModel>
  </diagram>
</mxfile>
